<svg xmlns="http://www.w3.org/2000/svg" width="320" height="400" viewBox="0 0 320 400" role="img">
  <defs>
    <linearGradient id="g" x1="40" y1="0" x2="280" y2="400" gradientUnits="userSpaceOnUse">
      <stop stop-color="#0d9488"/>
      <stop offset="0.45" stop-color="#0f766e"/>
      <stop offset="1" stop-color="#134e4a"/>
    </linearGradient>
    <linearGradient id="face" x1="160" y1="90" x2="160" y2="240" gradientUnits="userSpaceOnUse">
      <stop stop-color="#fde68a"/>
      <stop offset="1" stop-color="#fcd34d"/>
    </linearGradient>
  </defs>
  <rect width="320" height="400" rx="28" fill="url(#g)"/>
  <circle cx="160" cy="145" r="64" fill="url(#face)"/>
  <path fill="#0f172a" opacity="0.35" d="M96 200c28 52 100 52 128 0v40c-16 36-48 56-64 56s-48-20-64-56v-40z"/>
  <ellipse cx="160" cy="300" rx="98" ry="118" fill="#fed7aa"/>
  <rect x="118" y="168" width="18" height="22" rx="6" fill="#1e293b"/>
  <rect x="184" y="168" width="18" height="22" rx="6" fill="#1e293b"/>
  <path fill="none" stroke="#1e293b" stroke-width="4" stroke-linecap="round" d="M128 210c16 14 48 14 64 0"/>
  <rect x="48" y="52" width="224" height="8" rx="4" fill="#f97316" opacity="0.9"/>
</svg>
